<svg xmlns="http://www.w3.org/2000/svg" viewBox="0 0 1280 720" role="img" aria-labelledby="title desc"><title id="title">Abstract artificial intelligence editorial illustration</title><desc id="desc">A dark editorial illustration with a glowing blue network surrounding a central AI node.</desc><defs><linearGradient id="bg" x1="0" y1="0" x2="1" y2="1"><stop offset="0" stop-color="#0f172a"/><stop offset="1" stop-color="#1e293b"/></linearGradient><radialGradient id="glow"><stop offset="0" stop-color="#60a5fa" stop-opacity=".9"/><stop offset="1" stop-color="#2563eb" stop-opacity="0"/></radialGradient></defs><rect width="1280" height="720" fill="url(#bg)"/><circle cx="940" cy="220" r="260" fill="url(#glow)" opacity=".5"/><g fill="none" stroke="#60a5fa" stroke-opacity=".65" stroke-width="5"><path d="M260 420 L480 250 L680 370 L900 180 L1080 360"/><path d="M330 520 L540 430 L740 520 L980 450"/></g><g fill="#dbeafe"><circle cx="260" cy="420" r="12"/><circle cx="480" cy="250" r="12"/><circle cx="680" cy="370" r="16"/><circle cx="900" cy="180" r="12"/><circle cx="1080" cy="360" r="12"/><circle cx="540" cy="430" r="12"/><circle cx="740" cy="520" r="12"/><circle cx="980" cy="450" r="12"/></g><circle cx="680" cy="370" r="72" fill="#0f172a" stroke="#93c5fd" stroke-width="8"/><path d="M650 370h60M680 340v60" stroke="#fff" stroke-width="10" stroke-linecap="round"/><text x="80" y="625" fill="#fff" font-family="system-ui,sans-serif" font-size="34" font-weight="700">THE FUTURE OF AI</text></svg>